<svg width="20" height="20" viewBox="0 0 20 20" fill="none" xmlns="http://www.w3.org/2000/svg">
<path fill-rule="evenodd" clip-rule="evenodd" d="M9.6619 6.25C8.66139 6.25 7.85031 7.08947 7.85031 8.125C7.85031 9.16053 8.66139 10 9.6619 10C10.6624 10 11.4735 9.16053 11.4735 8.125C11.4735 7.08947 10.6624 6.25 9.6619 6.25ZM6.64258 8.125C6.64258 6.39911 7.99438 5 9.6619 5C11.3294 5 12.6812 6.39911 12.6812 8.125C12.6812 9.85089 11.3294 11.25 9.6619 11.25C7.99438 11.25 6.64258 9.85089 6.64258 8.125Z" fill="white"/>
<path fill-rule="evenodd" clip-rule="evenodd" d="M9.66204 2.5C8.22065 2.5 6.83829 3.09263 5.81907 4.14752C4.79985 5.20242 4.22726 6.63316 4.22726 8.125C4.22726 10.7125 5.6233 13.0685 7.0984 14.8243C7.82857 15.6933 8.56029 16.3941 9.1096 16.8773C9.32683 17.0684 9.51485 17.2249 9.66204 17.3437C9.80924 17.2249 9.99725 17.0684 10.2145 16.8773C10.7638 16.3941 11.4955 15.6933 12.2257 14.8243C13.7008 13.0685 15.0968 10.7125 15.0968 8.125C15.0968 6.63316 14.5242 5.20242 13.505 4.14752C12.4858 3.09263 11.1034 2.5 9.66204 2.5ZM9.66204 18.125C9.31575 18.637 9.31558 18.6369 9.31539 18.6368L9.31489 18.6364L9.31348 18.6354L9.30901 18.6321L9.29366 18.6208C9.28061 18.6112 9.26199 18.5973 9.23818 18.5793C9.19057 18.5433 9.12214 18.4908 9.03588 18.4226C8.86342 18.2862 8.61931 18.0865 8.32741 17.8297C7.74447 17.3169 6.96653 16.5723 6.18704 15.6445C4.64281 13.8065 3.01953 11.1625 3.01953 8.125C3.01953 6.30164 3.71937 4.55295 4.96508 3.26364C6.21079 1.97433 7.90034 1.25 9.66204 1.25C11.4237 1.25 13.1133 1.97433 14.359 3.26364C15.6047 4.55295 16.3046 6.30164 16.3046 8.125C16.3046 11.1625 14.6813 13.8065 13.137 15.6445C12.3576 16.5723 11.5796 17.3169 10.9967 17.8297C10.7048 18.0865 10.4607 18.2862 10.2882 18.4226C10.2019 18.4908 10.1335 18.5433 10.0859 18.5793C10.0621 18.5973 10.0435 18.6112 10.0304 18.6208L10.0151 18.6321L10.0106 18.6354L10.0092 18.6364L10.0087 18.6368C10.0085 18.6369 10.0083 18.637 9.66204 18.125ZM9.66204 18.125L10.0083 18.637C9.80041 18.7877 9.52367 18.7877 9.31575 18.637L9.66204 18.125Z" fill="white"/>
</svg>
